# xmcd
#
# Track frame offsets: 
#        150
#        22437
#        45800
#        67785
#        93482
#        121420
#        140865
#        176267
#        197485
#        227607
#
# Disc length: 3342 seconds
#
# Revision: 5
# Processed by: cddbd v1.5.2PL0 Copyright (c) Steve Scherf et al.
# Submitted via: ExactAudioCopy v0.99pb4
#
DISCID=800d0c0a
DTITLE=Joe Beck - Back to Beck - DMP 1988
DYEAR=1988
DGENRE=Jazz
TTITLE0=I Won't Be Back
TTITLE1=Lullaby
TTITLE2=Wry Toast
TTITLE3=Dreamin'
TTITLE4=Lookin' Up
TTITLE5=Hi Fly
TTITLE6=Earth Tone
TTITLE7=Funk Parade
TTITLE8=Another Dawn
TTITLE9=Don't You Wish (That We Were Young)
EXTD=YEAR: 1988
EXTT0=
EXTT1=
EXTT2=
EXTT3=
EXTT4=
EXTT5=
EXTT6=
EXTT7=
EXTT8=
EXTT9=
PLAYORDER=
